<?xml version="1.0" standalone="no"?>
<!DOCTYPE svg PUBLIC "-//W3C//DTD SVG 20010904//EN"
 "http://www.w3.org/TR/2001/REC-SVG-20010904/DTD/svg10.dtd">
<svg version="1.0" xmlns="http://www.w3.org/2000/svg"
 width="331.000000pt" height="93.000000pt" viewBox="0 0 331.000000 93.000000"
 preserveAspectRatio="xMidYMid meet">
<metadata>
Created by potrace 1.10, written by Peter Selinger 2001-2011
</metadata>
<g transform="translate(0.000000,93.000000) scale(0.050000,-0.050000)"
fill="#000000" stroke="none">
<path d="M1160 1510 l0 -230 -50 0 -50 0 0 -330 0 -330 -50 0 c-48 0 -50 5
-50 120 0 115 -2 120 -50 120 -47 0 -50 7 -50 100 l0 100 -120 0 -120 0 0
-220 0 -220 -220 0 c-133 0 -220 -8 -220 -20 0 -12 93 -20 240 -20 l240 0 0
220 0 220 80 0 80 0 0 -100 c0 -93 3 -100 50 -100 48 0 50 -5 50 -120 l0 -120
90 0 90 0 0 330 0 330 50 0 50 0 0 230 0 230 140 0 140 0 0 -390 0 -390 80 0
80 0 0 -170 c0 -93 5 -170 10 -170 6 0 82 36 170 80 88 44 186 80 220 80 l60
0 0 180 0 180 190 0 190 0 0 -180 0 -180 70 0 70 0 0 290 0 290 150 0 150 0 0
-370 0 -370 241 0 c133 0 259 9 280 21 34 18 39 14 39 -30 0 -62 36 -65 105
-11 66 52 75 50 75 -10 0 -71 46 -64 206 29 143 84 143 84 100 -32 -34 -91
152 -66 349 48 l85 49 0 -71 c0 -115 84 -95 353 81 l52 34 -42 -82 c-76 -149
14 -147 247 6 52 34 52 34 40 -16 -17 -66 37 -124 88 -97 20 10 53 15 74 9 22
-6 78 16 134 51 116 74 114 74 114 3 0 -64 43 -92 96 -65 19 10 46 13 60 8 15
-5 99 33 188 85 126 73 165 88 178 67 36 -56 19 -77 -62 -77 -44 0 -80 -9 -80
-20 0 -11 26 -20 57 -20 90 0 88 -21 -8 -94 -153 -117 -198 -273 -97 -339 114
-75 238 66 238 269 l0 134 85 55 c105 68 105 68 105 -5 0 -47 9 -60 41 -60 45
0 199 81 199 105 0 25 -26 17 -90 -25 -77 -51 -90 -50 -90 7 0 30 17 55 50 69
60 28 69 104 13 104 -20 0 -54 -19 -75 -43 -39 -43 -188 -145 -196 -133 -55
85 -72 123 -73 160 l0 46 -45 -52 c-38 -44 -237 -178 -264 -178 -19 0 -10 50
19 105 57 110 -89 92 -307 -38 -183 -108 -181 -110 -83 103 45 97 81 183 81
192 0 42 -57 -12 -95 -90 -32 -67 -56 -89 -103 -99 -34 -6 -133 -53 -219 -103
-189 -109 -191 -109 -153 -18 58 140 37 141 -190 10 -193 -111 -188 -111 -171
-8 11 66 29 87 123 146 134 86 182 149 145 193 -70 84 -253 -31 -307 -193 -30
-90 -50 -108 -196 -176 -9 -5 -10 16 -3 44 35 139 -86 145 -312 15 -159 -91
-169 -95 -176 -55 -11 71 -37 79 -112 33 l-71 -44 0 49 c0 41 32 68 187 160
236 142 258 166 195 216 -123 100 -341 -40 -425 -273 -33 -92 -87 -109 -338
-109 l-219 0 0 370 0 370 -180 0 -180 0 0 -290 0 -290 -50 0 c-50 0 -50 1 -50
180 l0 180 -220 0 -220 0 0 -180 c0 -138 -6 -180 -27 -180 -15 0 -96 -32 -179
-70 -83 -39 -156 -70 -163 -70 -6 0 -11 72 -11 160 l0 160 -80 0 -80 0 0 390
0 390 -180 0 -180 0 0 -230z m2760 -537 c0 -26 -317 -243 -332 -227 -18 17
115 194 166 222 71 39 166 41 166 5z m800 -49 c0 -22 -95 -109 -169 -156 -57
-36 -58 -36 -45 -1 8 20 14 43 14 52 0 46 87 121 141 121 33 0 59 -7 59 -16z
m-530 -244 c16 -26 -27 -104 -50 -90 -10 6 -28 -7 -40 -29 -27 -51 -80 -53
-80 -4 0 87 133 183 170 123z m1050 3 c0 -28 -88 -149 -115 -158 -40 -13 -29
64 16 122 40 51 99 72 99 36z m398 -38 c-40 -106 -138 -170 -138 -91 0 40 96
146 133 146 20 0 21 -13 5 -55z m333 -363 c-37 -109 -94 -173 -140 -155 -73
28 -4 218 115 320 60 52 71 -25 25 -165z"/>
</g>
</svg>
